<?xml version="1.0" standalone="no"?><!DOCTYPE svg PUBLIC "-//W3C//DTD SVG 1.1//EN" "http://www.w3.org/Graphics/SVG/1.1/DTD/svg11.dtd"><svg class="icon" width="200px" height="188.93px" viewBox="0 0 1084 1024" version="1.1" xmlns="http://www.w3.org/2000/svg"><path d="M541.63973 928.73159a627.700264 627.700264 0 0 1-130.836086-14.26318l-182.171496 109.53159 2.527652-179.523479C91.476932 760.522363 0 621.682045 0 464.365795 0 207.989656 242.534234 0 541.63973 0s541.63973 207.869292 541.639729 464.365795c0.120364 256.496503-242.41387 464.365795-541.639729 464.365795z m-59.580371-227.84978c-0.662004 29.248545 21.063767 50.492859 51.636321 50.553042a48.747576 48.747576 0 0 0 49.830855-49.770673 49.229033 49.229033 0 0 0-50.131766-49.590127 50.432677 50.432677 0 0 0-51.395592 48.747576zM386.971496 386.490038c0 21.244314 13.059536 39.118425 35.68804 41.044255 21.665589 1.865648 29.850367-5.958037 33.641845-29.489274 1.324008-8.305143 3.00911-16.610285 5.416397-24.734881 8.7866-30.331825 38.576785-54.765795 67.464238-56.210167 30.572554-1.444373 59.760917 17.994475 71.315898 46.761563 3.430385 8.485689 5.235851 17.994475 5.536761 26.239436 1.203644 35.627858-25.457067 68.607699-70.714076 76.852659-26.480165 4.814575-37.914781 22.147047-39.5397 46.94211-0.782368 11.314252-0.120364 41.525713-0.120364 41.525713h0.240729s-0.962915 15.406641 0.180546 26.660711c2.286923 22.628504 14.26318 31.174376 38.035146 29.730003 21.665589-1.38419 34.30385-15.226095 34.183485-36.350044 0-1.444373-0.481458-9.990244-0.361093-12.638261 0.962915-18.175022 10.832795-28.165266 29.609638-36.289862 51.756685-22.50814 86.722539-78.597943 87.504908-133.484102 0.060182-3.610932 0.120364-7.823685-0.120365-11.434616-4.092389-57.955451-37.674052-109.290861-86.48181-132.761916-5.717308-2.708199-10.953159-7.101499-17.03156-9.027329-57.173083-18.596297-126.02151-0.180547-162.130826 46.280106-22.086865 28.345813-32.317837 100.383897-32.317837 100.383896z" /></svg>